
<svg width="56" height="56" viewBox="0 0 56 56" fill="none" xmlns="http://www.w3.org/2000/svg">
<circle cx="28" cy="28" r="27.5" fill="#F5F7FD" stroke="#DFE7FB"/>
<g filter="url(#filter0_i_260_5468)">
<path d="M15 41C14.4696 41 13.9609 40.7893 13.5858 40.4142C13.2107 40.0391 13 39.5304 13 39V17.1533C13.0018 16.5828 13.2292 16.0361 13.6326 15.6326C14.0361 15.2292 14.5828 15.0018 15.1533 15H40.8573C41.4251 15.0018 41.969 15.2281 42.3705 15.6295C42.7719 16.031 42.9982 16.5749 43 17.1427V38.8467C42.9982 39.4172 42.7708 39.9639 42.3674 40.3674C41.9639 40.7708 41.4172 40.9982 40.8467 41H15Z" fill="white"/>
</g>
<path d="M15 41C14.4696 41 13.9609 40.7893 13.5858 40.4142C13.2107 40.0391 13 39.5304 13 39V17.1533C13.0018 16.5828 13.2292 16.0361 13.6326 15.6326C14.0361 15.2292 14.5828 15.0018 15.1533 15H40.8573C41.4251 15.0018 41.969 15.2281 42.3705 15.6295C42.7719 16.031 42.9982 16.5749 43 17.1427V38.8467C42.9982 39.4172 42.7708 39.9639 42.3674 40.3674C41.9639 40.7708 41.4172 40.9982 40.8467 41H15Z" stroke="#375BD2" stroke-width="1.5" stroke-linecap="round" stroke-linejoin="round"/>
<path d="M43 21H13" stroke="#375BD2" stroke-width="1.5" stroke-linecap="round" stroke-linejoin="round"/>
<path d="M29 31H35" stroke="#375BD2" stroke-width="1.5" stroke-linecap="round" stroke-linejoin="round"/>
<path d="M21 27L25 31L21 35" stroke="#375BD2" stroke-width="1.5" stroke-linecap="round" stroke-linejoin="round"/>
<defs>
<filter id="filter0_i_260_5468" x="12.25" y="14.25" width="31.5" height="27.5" filterUnits="userSpaceOnUse" color-interpolation-filters="sRGB">
<feFlood flood-opacity="0" result="BackgroundImageFix"/>
<feBlend mode="normal" in="SourceGraphic" in2="BackgroundImageFix" result="shape"/>
<feColorMatrix in="SourceAlpha" type="matrix" values="0 0 0 0 0 0 0 0 0 0 0 0 0 0 0 0 0 0 127 0" result="hardAlpha"/>
<feOffset dx="-3" dy="1"/>
<feComposite in2="hardAlpha" operator="arithmetic" k2="-1" k3="1"/>
<feColorMatrix type="matrix" values="0 0 0 0 0.87451 0 0 0 0 0.905882 0 0 0 0 0.984314 0 0 0 1 0"/>
<feBlend mode="normal" in2="shape" result="effect1_innerShadow_260_5468"/>
</filter>
</defs>
</svg>
