<svg xmlns="http://www.w3.org/2000/svg" shape-rendering="geometricPrecision" text-rendering="geometricPrecision" image-rendering="optimizeQuality" fill-rule="evenodd" clip-rule="evenodd" viewBox="0 0 484 511.55"><g fill-rule="nonzero"><path d="M422.1 24.94C422.1 11.23 410.86 0 397.15 0H24.94C11.23 0 0 11.24 0 24.94V486.6c0 13.71 11.23 24.95 24.94 24.95h23.39c-3.28-5.36-5.59-11.35-6.68-17.69H20.79c-1.38 0-2.61-1.21-2.61-2.61V22.6c0-1.41 1.23-2.61 2.61-2.61h381.19c1.39 0 2.61 1.27 2.61 2.61v322.47l17.51-.01V24.94zM107.37 208c-4.45 0-8.06-3.62-8.06-8.07s3.61-8.07 8.06-8.07h160.61c4.45 0 8.06 3.62 8.06 8.07s-3.61 8.07-8.06 8.07H107.37zm0 132.15c-4.45 0-8.06-3.61-8.06-8.07 0-4.45 3.61-8.06 8.06-8.06h196.67c4.46 0 8.07 3.61 8.07 8.06 0 4.46-3.61 8.07-8.07 8.07H107.37zm0-48.94c-4.45 0-8.06-3.61-8.06-8.06 0-4.46 3.61-8.07 8.06-8.07h160.61c4.45 0 8.06 3.61 8.06 8.07 0 4.45-3.61 8.06-8.06 8.06H107.37zm236.71-40.83H78.02v96.55c-5.84 1.61-11.31 4.29-16.14 7.79V159.27c0-4.45 3.62-8.06 8.07-8.06h282.2c4.45 0 8.06 3.61 8.06 8.06v185.82h-16.13v-94.71zM78.02 234.25h266.06v-66.91H78.02v66.91zM63.93 61.63h13.84v57.91H63.93V61.63zm25.47 0h12.88l16.74 31.98V61.63h13.04v57.91h-13.04l-16.65-31.8v31.8H89.4V61.63zm49.11 0h14.42l10.06 41.68 9.91-41.68h14l-16.57 57.91h-14.95l-16.87-57.91zm56.74 6.93c8.12-10.51 25.94-10.69 34.15-.15 7.13 9.17 7.69 27.82 3.4 38.38-1.76 4.32-4.31 7.71-7.62 10.11-6.57 4.77-18.13 4.78-24.92.5-3.3-2.08-5.98-5.38-8.04-9.88-4.86-10.69-4.25-29.53 3.03-38.96zm10.2 34.7c3.31 5.03 10.43 5.19 13.76.08 3.3-5.07 3.38-20.22-.11-25.39-3.42-5.06-10.26-5.04-13.63.05-3.43 5.19-3.44 20.07-.02 25.26zm39.6-41.63h13.85v57.91h-13.85V61.63zm55.11 34.22 12.1 4.73c-.81 4.39-2.1 8.08-3.85 11.01-1.74 2.94-3.92 5.18-6.5 6.68-2.59 1.48-5.89 2.25-9.89 2.25-4.86 0-8.83-.91-11.91-2.74-3.08-1.82-5.74-5.06-7.97-9.65-2.22-4.59-3.35-10.51-3.35-17.68 0-9.56 1.96-16.94 5.9-22.07 3.92-5.14 9.49-7.72 16.68-7.72 5.63 0 10.06 1.48 13.28 4.43 3.21 2.95 5.61 7.47 7.17 13.6l-12.16 3.49c-.42-1.75-.88-3.04-1.34-3.84-.77-1.36-1.73-2.41-2.83-3.14a6.79 6.79 0 0 0-3.76-1.11c-3.14 0-5.53 1.64-7.2 4.89-1.24 2.41-1.9 6.21-1.9 11.37 0 6.41.75 10.8 2.26 13.18 1.5 2.37 3.62 3.56 6.34 3.56 2.64 0 4.64-.97 5.99-2.89 1.34-1.91 2.33-4.7 2.94-8.35zm20.4-34.22h36.93v12.38h-23.08v9.22h21.4v11.81h-21.4v11.41h23.76v13.09h-37.61V61.63z"/><path fill="#D30000" d="m91.17 369.48 366.77-.19c7.12-.01 13.6 2.91 18.33 7.61l.05.04c4.69 4.72 7.6 11.19 7.61 18.3l.07 90.13c0 7.11-2.91 13.6-7.61 18.32l-.05.05c-4.71 4.69-11.18 7.61-18.28 7.62l-366.79.19c-7.11 0-13.6-2.91-18.31-7.61l-.05-.05c-4.7-4.71-7.62-11.18-7.62-18.29l-.07-90.14c0-7.11 2.91-13.6 7.61-18.32l.05-.04c4.71-4.7 11.18-7.62 18.29-7.62z"/><path fill="#fff" d="M158.78 454.11c0 2.45-.36 4.68-1.08 6.68-.72 2.01-1.99 3.71-3.84 5.12-1.84 1.42-4.36 2.52-7.56 3.33-3.21.8-7.29 1.2-12.25 1.2s-9.05-.4-12.25-1.2c-3.2-.81-5.72-1.91-7.56-3.33-1.84-1.41-3.13-3.11-3.85-5.12-.72-2-1.08-4.23-1.08-6.68v-39.62c0-1.02.23-1.76.69-2.21.45-.45 1.19-.67 2.2-.67h12.56c1.02 0 1.76.22 2.21.67.45.45.67 1.19.67 2.21v36.5c0 1.06.41 1.96 1.21 2.68.8.72 2.58 1.08 5.37 1.08 2.82 0 4.63-.36 5.44-1.08.79-.72 1.2-1.62 1.2-2.68v-36.5c0-1.02.22-1.76.67-2.21.46-.45 1.19-.67 2.21-.67h12.16c1.02 0 1.75.22 2.21.67.45.45.67 1.19.67 2.21v39.62zm25.54 15.13h-12c-1.02 0-1.75-.23-2.21-.69-.45-.45-.67-1.18-.67-2.2v-51.86c0-1.02.22-1.76.67-2.21.46-.45 1.19-.67 2.21-.67h8.33c1 0 1.87.15 2.59.48.72.31 1.44.87 2.13 1.68l15.52 17.77v-17.05c0-1.02.23-1.76.69-2.21.45-.45 1.18-.67 2.2-.67h12.01c1.01 0 1.74.22 2.2.67.45.45.67 1.19.67 2.21v51.86c0 1.02-.22 1.75-.67 2.2-.46.46-1.19.69-2.2.69h-12.01c-1.02 0-1.75-.23-2.2-.69-.46-.45-.69-1.18-.69-2.2v-9.84l-13.68-16.57v26.41c0 1.02-.23 1.75-.69 2.2-.45.46-1.18.69-2.2.69zm60.68 0h-12.4c-1.02 0-1.76-.23-2.21-.69-.45-.45-.68-1.18-.68-2.2v-51.86c0-1.02.23-1.76.68-2.21.45-.45 1.19-.67 2.21-.67h24.48c7.27 0 12.23 1.44 14.9 4.31 2.67 2.88 4 6.64 4 11.29v10.25c0 4.64-1.33 8.4-4 11.28-2.67 2.89-7.63 4.33-14.9 4.33h-9.2v13.28c0 1.02-.22 1.75-.68 2.2-.45.46-1.19.69-2.2.69zm2.72-42.67v12.09h7.21c1.54 0 2.56-.41 3.04-1.2.48-.8.72-1.71.72-2.73v-4.24c0-1.01-.24-1.92-.72-2.71-.48-.81-1.5-1.21-3.04-1.21h-7.21zm56.68 1.84-3.76 12.17h12.57l-3.76-12.17c-.23-.48-.45-.83-.69-1.04-.24-.21-.51-.32-.84-.32h-2c-.32 0-.6.11-.84.32-.24.21-.47.56-.68 1.04zm-4.56 37.94c0 1.02-.23 1.75-.69 2.2-.45.46-1.18.69-2.2.69h-11.76c-1.02 0-1.75-.23-2.21-.69-.45-.45-.67-1.18-.67-2.2v-21.13c0-1.6.25-3.44.76-5.52.5-2.08 1.29-4.51 2.36-7.29l6.96-18.16c.32-.92.81-1.58 1.49-2.01.66-.42 1.53-.63 2.59-.63H318c1.02 0 1.86.21 2.53.63.67.43 1.16 1.09 1.48 2.01l6.96 18.16c1.07 2.78 1.86 5.21 2.37 7.29s.75 3.92.75 5.52v21.13c0 1.02-.22 1.75-.67 2.2-.46.46-1.19.69-2.21.69h-12.08c-1.07 0-1.85-.23-2.36-.69-.51-.45-.77-1.18-.77-2.2v-11.2h-14.16v11.2zm43.7 2.89c-1.01 0-1.74-.23-2.2-.69-.45-.45-.68-1.18-.68-2.2v-9.52c0-1.01.23-1.75.68-2.2.46-.45 1.19-.68 2.2-.68h7.93v-26.9h-7.93c-1.01 0-1.74-.23-2.2-.68-.45-.45-.68-1.19-.68-2.2v-9.68c0-1.02.23-1.76.68-2.21.46-.45 1.19-.67 2.2-.67h34.1c1.02 0 1.76.22 2.21.67.45.45.67 1.19.67 2.21v9.68c0 1.01-.22 1.75-.67 2.2-.45.45-1.19.68-2.21.68h-7.76v26.9h7.76c1.02 0 1.76.23 2.21.68.45.45.67 1.19.67 2.2v9.52c0 1.02-.22 1.75-.67 2.2-.45.46-1.19.69-2.21.69h-34.1zm76.69 0h-26.97c-1.02 0-1.76-.23-2.21-.69-.46-.45-.68-1.18-.68-2.2v-51.86c0-1.02.22-1.76.68-2.21.45-.45 1.19-.67 2.21-.67h26.97c6.67 0 11.62 1.33 14.85 4 3.22 2.67 4.84 6.77 4.84 12.32v24.98c0 5.54-1.62 9.66-4.84 12.33-3.23 2.67-8.18 4-14.85 4zm-11.69-42.35v27.22h9.53c1.28 0 2.22-.32 2.84-.96.61-.65.92-1.63.92-2.97v-19.45c0-1.33-.31-2.31-.92-2.92-.62-.62-1.56-.92-2.84-.92h-9.53z"/></g></svg>